<svg width="202" height="19" viewBox="0 0 202 19" fill="none" xmlns="http://www.w3.org/2000/svg">
<path d="M20.0312 0L22.3438 2.23438V16.4844L20.0625 18.75H16.3125V13.9219H12.7031L11.6406 14.9375H8.95312L6.5 12.5156V11.1406H16.3594L18.5625 8.92188V4H13.9531L12.8906 2.90625H7.875L3.75 7.03125V12.375L5.98438 14.625V18.75H2.23438L0 16.4844V6.625L6.46875 0H20.0312ZM24.25 16.4844V0H30.2656V2.9375L28 5.1875V10.2031L30.2656 12.4531V18.75H26.5156L24.25 16.4844ZM63.3906 18.75V11.5781L69.4062 5.59375V16.375L67.0312 18.75H63.3906ZM65.5 0H69.4062V2.78125L56.6406 15.5469H52.9531L46.0156 8.57812V6.90625L43.9375 4.85938V9.71875L46.2031 12V18.75H42.5625L40.1875 16.375V3.14062L43.3281 0L55.7344 12.4062L58.0156 10.1406V7.51562L65.5 0ZM94.4531 12.125L87.7969 18.75H73.6094L71.3125 16.3438V6.59375L77.9688 0H92.1406L94.4531 2.39062V12.125ZM78.5781 15.875H86.4844L89.9062 12.4531V9.01562L88.4062 7.51562V4.0625L87.1875 2.875H79.2812L75.8594 6.29688V8.95312L77.3594 10.4688V14.6875L78.5781 15.875ZM117.047 0L119.422 2.32812V18.75H113.625L109.906 15V12.2188L105.688 8H104.062L100.125 4.0625V8.57812L102.359 10.8125V18.75H98.7188L96.375 16.375V0H102.359L115.703 13.3438L115.672 8.09375L113.406 5.85938V0H117.047ZM121.344 16.4844V0H127.359V2.9375L125.094 5.1875V10.2031L127.359 12.4531V18.75H123.609L121.344 16.4844ZM151.422 0H151.453L153.734 2.23438V4.70312L149.922 4.73438L147.906 2.6875H143.234V10.8438L144.453 12.0312V18.75H140.703L138.438 16.4844V8.60938L139.547 7.51562V2.6875H135.328L133.312 4.73438L129.281 4.70312V2.23438L131.547 0H151.422ZM176.859 12.125L170.203 18.75H156.016L153.719 16.3438V6.59375L160.375 0H174.547L176.859 2.39062V12.125ZM160.984 15.875H168.891L172.312 12.4531V9.01562L170.812 7.51562V4.0625L169.594 2.875H161.688L158.266 6.29688V8.95312L159.766 10.4688V14.6875L160.984 15.875ZM196.219 9.375L201.859 15V18.75H195.844V13.1562L194.234 11.5469H192.734L190.562 9.375H187.297L184.516 6.59375H196.922L193.312 3H182.531V7.70312L184.766 9.95312V18.75H181.016L178.781 16.4844V0H194.469L201.078 6.59375V9.375H196.219Z" fill="white"/>
</svg>
