<svg width="38" height="38" viewBox="0 0 38 38" fill="none" xmlns="http://www.w3.org/2000/svg">
<path d="M23.9197 6.10713C23.0376 6.10713 22.0537 7.00963 22.0537 8.48213C22.0537 9.95463 23.0376 10.8571 23.9197 10.8571C24.8019 10.8571 25.7858 9.95463 25.7858 8.48213C25.7858 7.00963 24.8019 6.10713 23.9197 6.10713ZM20.018 8.48213C20.018 6.20755 21.6167 4.07141 23.9197 4.07141C26.2228 4.07141 27.8215 6.20755 27.8215 8.48213C27.8215 10.7567 26.2242 12.8928 23.9197 12.8928C21.6153 12.8928 20.018 10.7567 20.018 8.48213ZM5.59832 10.8571C4.71618 10.8571 3.73225 11.7596 3.73225 13.2321C3.73225 14.7046 4.71618 15.6071 5.59832 15.6071C6.48046 15.6071 7.46439 14.7046 7.46439 13.2321C7.46439 11.7596 6.48046 10.8571 5.59832 10.8571ZM1.69653 13.2321C1.69653 10.9576 3.29525 8.82141 5.59832 8.82141C7.90139 8.82141 9.5001 10.9576 9.5001 13.2321C9.5001 15.5067 7.90139 17.6428 5.59832 17.6428C3.29525 17.6428 1.69653 15.5067 1.69653 13.2321ZM19.0001 16.9643C17.7945 16.9643 16.6018 17.2113 15.4955 17.6903C14.3891 18.1692 13.3927 18.8698 12.5677 19.7489C11.7427 20.6279 11.1066 21.6668 10.6988 22.8012C10.2909 23.9357 10.1199 25.1417 10.1963 26.3448C10.2791 27.6816 11.016 28.6981 12.1832 29.4174C13.3747 30.1503 14.9721 30.5357 16.5667 30.5357H21.4321C23.0281 30.5357 24.6255 30.1489 25.8157 29.4161C26.9842 28.6968 27.7211 27.6816 27.8039 26.3448C27.8803 25.1417 27.7093 23.9357 27.3014 22.8012C26.8936 21.6668 26.2575 20.6279 25.4325 19.7489C24.6075 18.8698 23.6111 18.1692 22.5047 17.6903C21.3984 17.2113 20.2057 16.9643 19.0001 16.9643ZM8.14296 25.7857C8.14301 24.331 8.43538 22.8912 9.00271 21.5517C9.57004 20.2123 10.4008 19.0005 11.4455 17.9883C12.4903 16.9761 13.7278 16.1842 15.0846 15.6596C16.4413 15.135 17.8897 14.8884 19.3436 14.9344C20.7976 14.9804 22.2274 15.3181 23.5483 15.9275C24.8692 16.5369 26.0541 17.4055 27.0328 18.4817C28.0114 19.558 28.7638 20.8199 29.2453 22.1926C29.7268 23.5652 29.9275 25.0207 29.8355 26.4724C29.7025 28.6086 28.4838 30.1652 26.8837 31.1505C25.304 32.1222 23.3158 32.5714 21.4321 32.5714H16.5681C14.683 32.5714 12.6962 32.1222 11.1165 31.1505C9.51503 30.1652 8.29768 28.6086 8.16467 26.4724C8.15019 26.2438 8.14295 26.0148 8.14296 25.7857ZM30.5358 13.2321C30.5358 11.7596 31.5197 10.8571 32.4019 10.8571C33.284 10.8571 34.268 11.7596 34.268 13.2321C34.268 14.7046 33.284 15.6071 32.4019 15.6071C31.5197 15.6071 30.5358 14.7046 30.5358 13.2321ZM32.4019 8.82141C30.0975 8.82141 28.5001 10.9576 28.5001 13.2321C28.5001 15.5067 30.0975 17.6428 32.4019 17.6428C34.7063 17.6428 36.3037 15.5067 36.3037 13.2321C36.3037 10.9576 34.7063 8.82141 32.4019 8.82141ZM12.2144 8.48213C12.2144 7.00963 13.1983 6.10713 14.0805 6.10713C14.9626 6.10713 15.9465 7.00963 15.9465 8.48213C15.9465 9.95463 14.9626 10.8571 14.0805 10.8571C13.1983 10.8571 12.2144 9.95463 12.2144 8.48213ZM14.0805 4.07141C11.7774 4.07141 10.1787 6.20755 10.1787 8.48213C10.1787 10.7567 11.7774 12.8928 14.0805 12.8928C16.3835 12.8928 17.9822 10.7567 17.9822 8.48213C17.9822 6.20755 16.3835 4.07141 14.0805 4.07141Z" fill="#EF4444"/>
</svg>
