<svg width="20" height="20" viewBox="0 0 20 20" fill="none" xmlns="http://www.w3.org/2000/svg">
<path d="M7.08329 11.6668C7.35956 11.6668 7.62451 11.5571 7.81986 11.3617C8.01521 11.1664 8.12496 10.9014 8.12496 10.6252C8.12496 10.3489 8.01521 10.0839 7.81986 9.88859C7.62451 9.69324 7.35956 9.5835 7.08329 9.5835C6.80703 9.5835 6.54207 9.69324 6.34672 9.88859C6.15137 10.0839 6.04163 10.3489 6.04163 10.6252C6.04163 10.9014 6.15137 11.1664 6.34672 11.3617C6.54207 11.5571 6.80703 11.6668 7.08329 11.6668ZM7.08329 14.5835C7.35956 14.5835 7.62451 14.4738 7.81986 14.2784C8.01521 14.083 8.12496 13.8181 8.12496 13.5418C8.12496 13.2656 8.01521 13.0006 7.81986 12.8053C7.62451 12.6099 7.35956 12.5002 7.08329 12.5002C6.80703 12.5002 6.54207 12.6099 6.34672 12.8053C6.15137 13.0006 6.04163 13.2656 6.04163 13.5418C6.04163 13.8181 6.15137 14.083 6.34672 14.2784C6.54207 14.4738 6.80703 14.5835 7.08329 14.5835ZM11.0416 10.6252C11.0416 10.9014 10.9319 11.1664 10.7365 11.3617C10.5412 11.5571 10.2762 11.6668 9.99996 11.6668C9.72369 11.6668 9.45874 11.5571 9.26339 11.3617C9.06804 11.1664 8.95829 10.9014 8.95829 10.6252C8.95829 10.3489 9.06804 10.0839 9.26339 9.88859C9.45874 9.69324 9.72369 9.5835 9.99996 9.5835C10.2762 9.5835 10.5412 9.69324 10.7365 9.88859C10.9319 10.0839 11.0416 10.3489 11.0416 10.6252ZM9.99996 14.5835C10.2762 14.5835 10.5412 14.4738 10.7365 14.2784C10.9319 14.083 11.0416 13.8181 11.0416 13.5418C11.0416 13.2656 10.9319 13.0006 10.7365 12.8053C10.5412 12.6099 10.2762 12.5002 9.99996 12.5002C9.72369 12.5002 9.45874 12.6099 9.26339 12.8053C9.06804 13.0006 8.95829 13.2656 8.95829 13.5418C8.95829 13.8181 9.06804 14.083 9.26339 14.2784C9.45874 14.4738 9.72369 14.5835 9.99996 14.5835ZM13.9583 10.6252C13.9583 10.9014 13.8485 11.1664 13.6532 11.3617C13.4578 11.5571 13.1929 11.6668 12.9166 11.6668C12.6404 11.6668 12.3754 11.5571 12.1801 11.3617C11.9847 11.1664 11.875 10.9014 11.875 10.6252C11.875 10.3489 11.9847 10.0839 12.1801 9.88859C12.3754 9.69324 12.6404 9.5835 12.9166 9.5835C13.1929 9.5835 13.4578 9.69324 13.6532 9.88859C13.8485 10.0839 13.9583 10.3489 13.9583 10.6252Z" fill="#E5E7EB"/>
<path fill-rule="evenodd" clip-rule="evenodd" d="M6.66663 2.7085C6.83239 2.7085 6.99136 2.77434 7.10857 2.89155C7.22578 3.00876 7.29163 3.16774 7.29163 3.3335V3.9585H12.7083V3.3335C12.7083 3.16774 12.7741 3.00876 12.8914 2.89155C13.0086 2.77434 13.1675 2.7085 13.3333 2.7085C13.4991 2.7085 13.658 2.77434 13.7752 2.89155C13.8924 3.00876 13.9583 3.16774 13.9583 3.3335V3.96516C14.085 3.9685 14.203 3.97461 14.3125 3.9835C14.6291 4.0085 14.9258 4.06516 15.2066 4.2085C15.6379 4.42822 15.9886 4.77887 16.2083 5.21016C16.3516 5.491 16.4083 5.78766 16.4333 6.10433C16.4583 6.4085 16.4583 6.77933 16.4583 7.22516V13.6085C16.4583 14.0543 16.4583 14.4252 16.4333 14.7293C16.4083 15.046 16.3516 15.3427 16.2083 15.6235C15.9888 16.0547 15.6384 16.4053 15.2075 16.6252C14.9258 16.7685 14.6291 16.8252 14.3125 16.8502C14.0083 16.8752 13.6375 16.8752 13.1925 16.8752H6.80829C6.36246 16.8752 5.99163 16.8752 5.68746 16.8502C5.37079 16.8252 5.07413 16.7685 4.79329 16.6252C4.36225 16.4059 4.01163 16.0558 3.79163 15.6252C3.64829 15.3435 3.59163 15.0468 3.56663 14.7302C3.54163 14.426 3.54163 14.0552 3.54163 13.6102V7.22516C3.54163 6.77933 3.54163 6.4085 3.56663 6.10433C3.59163 5.78766 3.64829 5.491 3.79163 5.21016C4.01135 4.77887 4.362 4.42822 4.79329 4.2085C5.07413 4.06516 5.37079 4.0085 5.68746 3.9835C5.7969 3.97461 5.91496 3.9685 6.04163 3.96516V3.3335C6.04163 3.25142 6.05779 3.17015 6.0892 3.09432C6.12061 3.01849 6.16665 2.94959 6.22468 2.89155C6.28272 2.83352 6.35162 2.78748 6.42745 2.75607C6.50328 2.72466 6.58455 2.7085 6.66663 2.7085ZM6.04163 5.41683V5.21516C5.95735 5.21776 5.87316 5.22248 5.78913 5.22933C5.54996 5.2485 5.43579 5.2835 5.36079 5.32183C5.16447 5.42175 5.00488 5.58134 4.90496 5.77766C4.86663 5.85266 4.83163 5.96683 4.81246 6.206C4.79246 6.45266 4.79163 6.77266 4.79163 7.25016V7.7085H15.2083V7.25016C15.2083 6.7735 15.2083 6.45266 15.1875 6.206C15.1683 5.96683 15.1333 5.85266 15.095 5.77766C14.995 5.58134 14.8354 5.42175 14.6391 5.32183C14.5641 5.2835 14.45 5.2485 14.21 5.22933C14.1262 5.22249 14.0423 5.21777 13.9583 5.21516V5.41683C13.9583 5.58259 13.8924 5.74156 13.7752 5.85877C13.658 5.97598 13.4991 6.04183 13.3333 6.04183C13.1675 6.04183 13.0086 5.97598 12.8914 5.85877C12.7741 5.74156 12.7083 5.58259 12.7083 5.41683V5.2085H7.29163V5.41683C7.29163 5.58259 7.22578 5.74156 7.10857 5.85877C6.99136 5.97598 6.83239 6.04183 6.66663 6.04183C6.50087 6.04183 6.34189 5.97598 6.22468 5.85877C6.10747 5.74156 6.04163 5.58259 6.04163 5.41683ZM15.2083 8.54183H4.79163V13.5835C4.79163 14.0602 4.79163 14.381 4.81246 14.6268C4.83163 14.8668 4.86663 14.981 4.90496 15.056C5.00496 15.2527 5.16413 15.4118 5.36079 15.5118C5.43579 15.5502 5.54996 15.5852 5.78913 15.6043C6.03579 15.6243 6.35579 15.6252 6.83329 15.6252H13.1666C13.6433 15.6252 13.9641 15.6252 14.21 15.6043C14.45 15.5852 14.5641 15.5502 14.6391 15.5118C14.8354 15.4119 14.995 15.2523 15.095 15.056C15.1333 14.981 15.1683 14.8668 15.1875 14.6268C15.2075 14.381 15.2083 14.0602 15.2083 13.5835V8.54183Z" fill="#E5E7EB"/>
<path fill-rule="evenodd" clip-rule="evenodd" d="M8.125 6.4585C8.125 6.29274 8.19085 6.13376 8.30806 6.01655C8.42527 5.89934 8.58424 5.8335 8.75 5.8335H11.25C11.4158 5.8335 11.5747 5.89934 11.6919 6.01655C11.8092 6.13376 11.875 6.29274 11.875 6.4585C11.875 6.62426 11.8092 6.78323 11.6919 6.90044C11.5747 7.01765 11.4158 7.0835 11.25 7.0835H8.75C8.58424 7.0835 8.42527 7.01765 8.30806 6.90044C8.19085 6.78323 8.125 6.62426 8.125 6.4585Z" fill="#E5E7EB"/>
</svg>
