<svg width="10" height="10" viewBox="0 0 10 10" fill="none" xmlns="http://www.w3.org/2000/svg">
<path d="M0.34792 8.07423L0.62349 6.18474C0.640288 6.06126 0.696582 5.9464 0.784655 5.85787L6.12399 0.511275C6.1931 0.441161 6.27914 0.390072 6.37379 0.362952C6.46843 0.335831 6.56847 0.333597 6.66423 0.356466C7.1544 0.491963 7.5987 0.757728 7.94992 1.12552C8.3167 1.47915 8.58062 1.92571 8.71353 2.41756C8.73639 2.51332 8.73416 2.61336 8.70704 2.70801C8.67992 2.80265 8.62883 2.88869 8.55872 2.95781L3.21348 8.29759C3.12483 8.38544 3.00988 8.44188 2.88616 8.4583L0.997121 8.73387C0.907887 8.74689 0.816841 8.73869 0.731367 8.70995C0.645894 8.6812 0.568398 8.63271 0.505165 8.56842C0.441932 8.50413 0.394742 8.42583 0.367422 8.33989C0.340102 8.25395 0.333421 8.16278 0.34792 8.07378M5.11387 1.5282L7.5486 3.96293" stroke="#E5E7EB" stroke-width="0.680979" stroke-linecap="round" stroke-linejoin="round"/>
</svg>
