<svg width="15" height="18" viewBox="0 0 15 18" fill="none" xmlns="http://www.w3.org/2000/svg">
<path d="M8 16.75V16.3333C8 13.9763 8 12.7978 8.73225 12.0656C9.4645 11.3333 10.643 11.3333 13 11.3333H13.4167M13.8333 9.95258V7.16667C13.8333 4.02397 13.8333 2.45262 12.857 1.47631C11.8807 0.5 10.3093 0.5 7.16667 0.5C4.02397 0.5 2.45262 0.5 1.47631 1.47631C0.5 2.45262 0.5 4.02397 0.5 7.16667V10.9535C0.5 13.6577 0.5 15.0097 1.23839 15.9256C1.38757 16.1106 1.55609 16.2791 1.74111 16.4282C2.65692 17.1667 4.00902 17.1667 6.71317 17.1667C7.30117 17.1667 7.59508 17.1667 7.86433 17.0717C7.92033 17.0519 7.97517 17.0292 8.02875 17.0036C8.28633 16.8803 8.49417 16.6725 8.90992 16.2567L12.857 12.3097C13.3387 11.8279 13.5796 11.5871 13.7065 11.2807C13.8333 10.9745 13.8333 10.6338 13.8333 9.95258Z" stroke="#E5E7EB" stroke-linecap="round" stroke-linejoin="round"/>
</svg>
