<svg width="16" height="16" viewBox="0 0 16 16" fill="none" xmlns="http://www.w3.org/2000/svg">
<path d="M6.22982 12.5209L4.94182 12.1756L5.46649 10.2163C4.6812 9.92646 3.95133 9.50436 3.30849 8.96825L1.87316 10.4043L0.93049 9.46158L2.36582 8.02558C1.55528 7.05471 1.01064 5.89006 0.785156 4.64558L2.09716 4.40625C2.34879 5.78879 3.07761 7.03919 4.15658 7.9395C5.23554 8.83981 6.59624 9.33294 8.00149 9.33294C9.40674 9.33294 10.7674 8.83981 11.8464 7.9395C12.9254 7.03919 13.6542 5.78879 13.9058 4.40625L15.2178 4.64492C14.9923 5.8897 14.4474 7.05459 13.6365 8.02558L15.0725 9.46158L14.1298 10.4043L12.6938 8.96825C12.051 9.50436 11.3211 9.92646 10.5358 10.2163L11.0612 12.1762L9.77316 12.5209L9.24782 10.5609C8.42281 10.7032 7.57951 10.7032 6.75449 10.5609L6.22982 12.5209Z" fill="#9CA3AF"/>
</svg>
