<svg width="20" height="20" viewBox="0 0 20 20" fill="none" xmlns="http://www.w3.org/2000/svg">
<path d="M1.66663 9.16671C1.66663 6.41685 1.66663 5.04192 2.5209 4.18765C3.37517 3.33337 4.7501 3.33337 7.49996 3.33337H8.33329C11.0831 3.33337 12.458 3.33337 13.3124 4.18765C14.1666 5.04192 14.1666 6.41685 14.1666 9.16671V10.8334C14.1666 13.5832 14.1666 14.9581 13.3124 15.8125C12.458 16.6667 11.0831 16.6667 8.33329 16.6667H7.49996C4.7501 16.6667 3.37517 16.6667 2.5209 15.8125C1.66663 14.9581 1.66663 13.5832 1.66663 10.8334V9.16671Z" stroke="#E5E7EB"/>
<path d="M14.1666 7.4215L14.2715 7.33493C16.0347 5.88015 16.9163 5.15276 17.6248 5.50398C18.3333 5.85519 18.3333 7.01959 18.3333 9.34838V10.6515C18.3333 12.9804 18.3333 14.1447 17.6248 14.496C16.9163 14.8471 16.0347 14.1198 14.2715 12.665L14.1666 12.5784" stroke="#E5E7EB" stroke-linecap="round"/>
<path d="M9.58337 9.16663C10.2737 9.16663 10.8334 8.60698 10.8334 7.91663C10.8334 7.22627 10.2737 6.66663 9.58337 6.66663C8.89302 6.66663 8.33337 7.22627 8.33337 7.91663C8.33337 8.60698 8.89302 9.16663 9.58337 9.16663Z" stroke="#E5E7EB"/>
</svg>
