<svg width="38" height="38" viewBox="0 0 38 38" fill="none" xmlns="http://www.w3.org/2000/svg">
<path d="M25.3334 11.0833H25.3492M5.38341 28.5H19.0001C22.3595 28.5 25.5813 27.1655 27.9568 24.79C30.3322 22.4146 31.6667 19.1927 31.6667 15.8333V11.0833C31.6703 9.7342 31.243 8.41917 30.4469 7.32987C29.6509 6.24058 28.5279 5.43394 27.2414 5.0275C25.9549 4.62106 24.5723 4.63606 23.2949 5.07031C22.0176 5.50456 20.9123 6.33537 20.1401 7.44167L3.16675 31.6667" stroke="#8B5CF6" stroke-width="2" stroke-linecap="round" stroke-linejoin="round"/>
<path d="M31.6668 11.0834L34.8335 11.875L31.6668 12.6667M15.8335 28.5V33.25M22.1668 28.1042V33.25M11.0835 28.5C13.0359 28.4999 14.9409 27.8983 16.5392 26.7769C18.1375 25.6556 19.3515 24.069 20.016 22.2331C20.6804 20.3972 20.7631 18.4011 20.2527 16.5166C19.7423 14.632 18.6636 12.9505 17.1635 11.7009" stroke="#8B5CF6" stroke-width="2" stroke-linecap="round" stroke-linejoin="round"/>
</svg>
