<svg width="20" height="20" viewBox="0 0 20 20" fill="none" xmlns="http://www.w3.org/2000/svg">
<path d="M6.66663 5.83337H13.3333" stroke="#E5E7EB" stroke-linecap="round" stroke-linejoin="round"/>
<path d="M6.66663 9.16663H9.99996" stroke="#E5E7EB" stroke-linecap="round" stroke-linejoin="round"/>
<path d="M10.8334 17.9166V17.5C10.8334 15.143 10.8334 13.9645 11.5656 13.2322C12.2979 12.5 13.4764 12.5 15.8334 12.5H16.25M16.6667 11.1192V8.33329C16.6667 5.19059 16.6667 3.61925 15.6904 2.64293C14.7141 1.66663 13.1427 1.66663 10 1.66663C6.85735 1.66663 5.286 1.66663 4.30968 2.64293C3.33337 3.61924 3.33337 5.19059 3.33337 8.33329V12.1201C3.33337 14.8243 3.33337 16.1764 4.07177 17.0922C4.22094 17.2772 4.38947 17.4457 4.57448 17.5949C5.4903 18.3333 6.84239 18.3333 9.54654 18.3333C10.1345 18.3333 10.4285 18.3333 10.6977 18.2383C10.7537 18.2185 10.8085 18.1958 10.8621 18.1702C11.1197 18.047 11.3275 17.8391 11.7433 17.4234L15.6904 13.4763C16.1721 12.9945 16.413 12.7537 16.5399 12.4474C16.6667 12.1411 16.6667 11.8005 16.6667 11.1192Z" stroke="#E5E7EB" stroke-linecap="round" stroke-linejoin="round"/>
</svg>
