<svg width="20" height="20" viewBox="0 0 20 20" fill="none" xmlns="http://www.w3.org/2000/svg">
<path d="M13.5902 3.65324C13.0977 3.65324 12.8514 3.65324 12.627 3.57C12.5959 3.55843 12.5652 3.54572 12.535 3.53186C12.3175 3.43208 12.1434 3.25795 11.795 2.90968C10.9935 2.1081 10.5927 1.70731 10.0995 1.67035C10.0333 1.66538 9.96663 1.66538 9.90038 1.67035C9.40721 1.70731 9.00638 2.1081 8.20483 2.90968C7.85657 3.25795 7.68243 3.43208 7.46493 3.53186C7.43473 3.54572 7.40401 3.55843 7.37285 3.57C7.1485 3.65324 6.90223 3.65324 6.40972 3.65324H6.31887C5.06228 3.65324 4.43398 3.65324 4.04362 4.04362C3.65324 4.43398 3.65324 5.06228 3.65324 6.31887V6.40972C3.65324 6.90223 3.65324 7.1485 3.57 7.37285C3.55843 7.40401 3.54572 7.43473 3.53186 7.46493C3.43208 7.68243 3.25795 7.85657 2.90968 8.20483C2.1081 9.00638 1.70731 9.40721 1.67035 9.90038C1.66538 9.96663 1.66538 10.0333 1.67035 10.0995C1.70731 10.5927 2.1081 10.9935 2.90968 11.795C3.25795 12.1434 3.43208 12.3175 3.53186 12.535C3.54572 12.5652 3.55843 12.5959 3.57 12.627C3.65324 12.8514 3.65324 13.0977 3.65324 13.5902V13.681C3.65324 14.9376 3.65324 15.566 4.04362 15.9563C4.43398 16.3467 5.06228 16.3467 6.31887 16.3467H6.40972C6.90223 16.3467 7.1485 16.3467 7.37285 16.43C7.40401 16.4415 7.43473 16.4542 7.46493 16.468C7.68243 16.5679 7.85657 16.742 8.20483 17.0902C9.00638 17.8918 9.40721 18.2926 9.90038 18.3295C9.96663 18.3345 10.0332 18.3345 10.0995 18.3295C10.5927 18.2926 10.9935 17.8918 11.795 17.0902C12.1434 16.742 12.3175 16.5679 12.535 16.468C12.5652 16.4542 12.5959 16.4415 12.627 16.43C12.8514 16.3467 13.0977 16.3467 13.5902 16.3467H13.681C14.9376 16.3467 15.566 16.3467 15.9563 15.9563C16.3467 15.566 16.3467 14.9376 16.3467 13.681V13.5902C16.3467 13.0977 16.3467 12.8514 16.43 12.627C16.4415 12.5959 16.4542 12.5652 16.468 12.535C16.5679 12.3175 16.742 12.1434 17.0902 11.795C17.8918 10.9935 18.2926 10.5927 18.3295 10.0995C18.3345 10.0332 18.3345 9.96663 18.3295 9.90038C18.2926 9.40721 17.8918 9.00638 17.0902 8.20483C16.742 7.85657 16.5679 7.68243 16.468 7.46493C16.4542 7.43473 16.4415 7.40401 16.43 7.37285C16.3467 7.1485 16.3467 6.90223 16.3467 6.40972V6.31887C16.3467 5.06228 16.3467 4.43398 15.9563 4.04362C15.566 3.65324 14.9376 3.65324 13.681 3.65324H13.5902Z" stroke="#E5E7EB"/>
<path d="M12.9167 10C12.9167 11.6109 11.6109 12.9167 10 12.9167C8.38921 12.9167 7.08337 11.6109 7.08337 10C7.08337 8.38921 8.38921 7.08337 10 7.08337C11.6109 7.08337 12.9167 8.38921 12.9167 10Z" stroke="#E5E7EB"/>
</svg>
