<svg width="38" height="38" viewBox="0 0 38 38" fill="none" xmlns="http://www.w3.org/2000/svg">
<path d="M20.5834 17.4167C20.5834 13.9189 17.7478 11.0834 14.2501 11.0834C10.7523 11.0834 7.91675 13.9189 7.91675 17.4167C7.91675 20.9144 10.7523 23.75 14.2501 23.75C17.7478 23.75 20.5834 20.9144 20.5834 17.4167Z" stroke="#22C55E" stroke-width="1.5" stroke-linecap="round" stroke-linejoin="round"/>
<path d="M17.4779 11.9664C17.4375 11.6778 17.4167 11.383 17.4167 11.0833C17.4167 7.58553 20.2523 4.75 23.7501 4.75C27.2478 4.75 30.0834 7.58553 30.0834 11.0833C30.0834 14.5811 27.2478 17.4167 23.7501 17.4167C22.5711 17.4167 21.4675 17.0946 20.5223 16.5336" stroke="#22C55E" stroke-width="1.5" stroke-linecap="round" stroke-linejoin="round"/>
<path d="M23.75 33.25C23.75 28.0033 19.4967 23.75 14.25 23.75C9.00329 23.75 4.75 28.0033 4.75 33.25" stroke="#22C55E" stroke-width="1.5" stroke-linecap="round" stroke-linejoin="round"/>
<path d="M33.25 26.9166C33.25 21.6699 28.9967 17.4166 23.75 17.4166" stroke="#22C55E" stroke-width="1.5" stroke-linecap="round" stroke-linejoin="round"/>
</svg>
