<svg width="38" height="38" viewBox="0 0 38 38" fill="none" xmlns="http://www.w3.org/2000/svg">
<path d="M3.27079 18.8624C3.45355 17.8654 4.25752 16.846 5.55494 15.9662C7.89103 14.3818 10.5591 14.3883 13.2297 14.2894C14.116 14.2566 16.4959 14.2458 19.0001 14.2514C21.5043 14.2458 23.8842 14.2566 24.7704 14.2894C27.441 14.3883 30.1091 14.3818 32.4453 15.9662C33.7427 16.846 34.5467 17.8654 34.7294 18.8624C34.8863 19.7182 34.8621 22.655 34.6811 24.7274C34.5856 25.8199 34.4886 26.3517 34.3435 26.5753C33.9061 27.2496 32.643 27.8168 30.7851 28.1729C29.0416 28.5071 29.3008 28.5 19.0001 28.5C8.69932 28.5 8.9586 28.5071 7.21506 28.1729C5.35711 27.8168 4.09415 27.2496 3.65663 26.5753C3.51166 26.3517 3.41452 25.8199 3.31906 24.7274C3.13806 22.655 3.11386 19.7182 3.27079 18.8624Z" stroke="#F59E0B" stroke-width="1.5" stroke-linecap="round" stroke-linejoin="round"/>
<path d="M7.125 14.25L9.20431 7.10934C9.39529 6.63431 9.76648 6.23756 10.2896 6.05967C15.4243 4.31344 22.5756 4.31344 27.7104 6.05967C28.2335 6.23756 28.6047 6.63431 28.7958 7.10934L30.875 14.25" stroke="#F59E0B" stroke-width="1.5" stroke-linecap="round" stroke-linejoin="round"/>
<path d="M3.95825 19L6.33325 19.7917" stroke="#F59E0B" stroke-width="1.5" stroke-linecap="round" stroke-linejoin="round"/>
<path d="M34.0417 19L31.6667 19.7917" stroke="#F59E0B" stroke-width="1.5" stroke-linecap="round" stroke-linejoin="round"/>
<path d="M12.6667 27.7083L13.0557 26.7358C13.6342 25.2898 13.9234 24.5667 14.5265 24.1583C15.1297 23.75 15.9085 23.75 17.466 23.75H20.5342C22.0917 23.75 22.8705 23.75 23.4736 24.1583C24.0767 24.5667 24.366 25.2898 24.9444 26.7358L25.3334 27.7083" stroke="#F59E0B" stroke-width="1.5" stroke-linecap="round" stroke-linejoin="round"/>
<path d="M11.0859 29.3903V30.6603C11.086 32.0448 11.0253 32.3041 10.6074 32.7083C10.4851 32.8265 10.2366 32.9968 10.0551 33.0868C9.73748 33.244 9.63094 33.25 7.16882 33.25C4.65138 33.25 4.60635 33.2473 4.21844 33.072C4.00171 32.974 3.72833 32.7783 3.61091 32.6369C3.19643 32.1382 3.17671 31.9911 3.17285 29.3643L3.17391 23.75" stroke="#F59E0B" stroke-width="1.5" stroke-linecap="round"/>
<path d="M26.9141 29.3903V30.6603C26.9139 32.0448 26.9745 32.3041 27.3925 32.7083C27.5148 32.8265 27.7634 32.9968 27.9448 33.0868C28.2624 33.244 28.369 33.25 30.8311 33.25C33.3486 33.25 33.3935 33.2473 33.7815 33.072C33.9982 32.974 34.2717 32.7783 34.389 32.6369C34.8035 32.1382 34.8231 31.9911 34.8271 29.3643L34.826 23.75" stroke="#F59E0B" stroke-width="1.5" stroke-linecap="round"/>
<path d="M31.6667 14.25L34.0417 13.4584" stroke="#F59E0B" stroke-width="1.5" stroke-linecap="round" stroke-linejoin="round"/>
<path d="M6.33325 14.25L3.95825 13.4584" stroke="#F59E0B" stroke-width="1.5" stroke-linecap="round" stroke-linejoin="round"/>
</svg>
