<svg width="422" height="422" viewBox="0 0 422 422" fill="none" xmlns="http://www.w3.org/2000/svg">
<circle cx="211" cy="211" r="182.292" fill="#161B22" stroke="white" stroke-width="17.2245"/>
<mask id="mask0_177_1055" style="mask-type:alpha" maskUnits="userSpaceOnUse" x="37" y="37" width="348" height="348">
<circle cx="211" cy="211" r="173.68" fill="#D9D9D9"/>
</mask>
<g mask="url(#mask0_177_1055)">
<path d="M177.51 88.9932C172.489 88.9932 167.674 90.9735 164.124 94.4985C160.574 98.0236 158.579 102.805 158.579 107.79V159.053C158.579 164.038 160.574 168.819 164.124 172.344C167.674 175.869 172.489 177.85 177.51 177.85H236.023C241.044 177.85 245.859 175.869 249.41 172.344C252.96 168.819 254.954 164.038 254.954 159.053V148.158L278.491 168.971C284.032 173.872 292.816 169.962 292.816 162.587V101.741C292.816 94.3587 284.032 90.4559 278.491 95.3567L254.954 116.17V107.79C254.954 102.805 252.96 98.0236 249.41 94.4985C245.859 90.9735 241.044 88.9932 236.023 88.9932H177.51Z" fill="white"/>
<path d="M175.054 191.02L190.134 188.24L225.39 188.005L240.78 190.343C252.769 192.165 260.959 197.667 267.735 206.574C274.508 215.482 279.425 228.018 282.668 242.58C288.551 268.989 288.923 301.434 288.946 329.991H255.159L246.539 458.171C222.706 463.437 196.286 463.63 171.541 458.151L161.797 329.99H126.312C126.539 301.779 127.967 269.776 134.459 243.565C138.045 229.098 143.162 216.544 149.854 207.533C156.547 198.523 164.376 192.989 175.054 191.02Z" fill="white"/>
</g>
</svg>
